<svg width="82" height="30" viewBox="0 0 82 30" fill="none" xmlns="http://www.w3.org/2000/svg">
<g clip-path="url(#clip0)">
<path d="M31.6461 21V7.49219H35.4591C36.6342 7.49219 37.6733 7.75195 38.5763 8.27148C39.4793 8.79102 40.1751 9.53011 40.6637 10.4888C41.1585 11.4474 41.409 12.5483 41.4152 13.7915V14.6543C41.4152 15.9284 41.1678 17.0448 40.673 18.0034C40.1844 18.9621 39.4824 19.6981 38.567 20.2114C37.6578 20.7248 36.5971 20.9876 35.3849 21H31.6461ZM33.4274 8.95801V19.5435H35.3014C36.6744 19.5435 37.7413 19.1167 38.5021 18.2632C39.269 17.4097 39.6525 16.1943 39.6525 14.6172V13.8286C39.6525 12.2948 39.2907 11.1042 38.567 10.2568C37.8496 9.40332 36.8291 8.97038 35.5055 8.95801H33.4274ZM48.0114 21.1855C46.6507 21.1855 45.5436 20.7402 44.6901 19.8496C43.8366 18.9528 43.4098 17.756 43.4098 16.2593V15.9438C43.4098 14.9481 43.5984 14.0605 43.9757 13.2812C44.3592 12.4958 44.8911 11.8835 45.5714 11.4443C46.2579 10.999 47.0001 10.7764 47.798 10.7764C49.103 10.7764 50.1173 11.2062 50.841 12.0659C51.5646 12.9256 51.9264 14.1564 51.9264 15.7583V16.4727H45.1261C45.1508 17.4622 45.4384 18.2632 45.9889 18.8755C46.5455 19.4816 47.2506 19.7847 48.1041 19.7847C48.7103 19.7847 49.2236 19.661 49.6442 19.4136C50.0647 19.1662 50.4327 18.8384 50.7482 18.4302L51.7965 19.2466C50.9554 20.5392 49.6937 21.1855 48.0114 21.1855ZM47.798 12.1865C47.1053 12.1865 46.5239 12.4401 46.0538 12.9473C45.5838 13.4482 45.2931 14.1533 45.1818 15.0625H50.2101V14.9326C50.1606 14.0605 49.9256 13.3864 49.505 12.9102C49.0844 12.4277 48.5154 12.1865 47.798 12.1865ZM58.1701 14.979C56.6424 14.5399 55.5291 14.0018 54.8302 13.3647C54.1375 12.7215 53.7911 11.9299 53.7911 10.9897C53.7911 9.92594 54.2148 9.04769 55.0621 8.35498C55.9157 7.65609 57.0228 7.30664 58.3834 7.30664C59.3112 7.30664 60.1368 7.486 60.8605 7.84473C61.5903 8.20345 62.1531 8.69824 62.549 9.3291C62.951 9.95996 63.152 10.6496 63.152 11.3979H61.3615C61.3615 10.5815 61.1017 9.94141 60.5822 9.47754C60.0626 9.00749 59.3297 8.77246 58.3834 8.77246C57.5052 8.77246 56.8187 8.96729 56.3239 9.35693C55.8353 9.7404 55.591 10.2754 55.591 10.9619C55.591 11.5124 55.8229 11.9793 56.2868 12.3628C56.7568 12.7401 57.5516 13.0864 58.671 13.4019C59.7967 13.7173 60.6749 14.0667 61.3058 14.4502C61.9428 14.8275 62.4129 15.2697 62.716 15.7769C63.0252 16.284 63.1798 16.8809 63.1798 17.5674C63.1798 18.6621 62.7531 19.5404 61.8995 20.2021C61.046 20.8577 59.9049 21.1855 58.4762 21.1855C57.5485 21.1855 56.6826 21.0093 55.8785 20.6567C55.0745 20.298 54.4529 19.8094 54.0138 19.1909C53.5809 18.5724 53.3644 17.8704 53.3644 17.085H55.1549C55.1549 17.9014 55.4549 18.5477 56.0548 19.0239C56.6609 19.494 57.4681 19.729 58.4762 19.729C59.4163 19.729 60.1368 19.5373 60.6378 19.1538C61.1388 18.7703 61.3893 18.2477 61.3893 17.5859C61.3893 16.9242 61.1574 16.4139 60.6935 16.0552C60.2296 15.6903 59.3885 15.3315 58.1701 14.979ZM64.7477 15.8882C64.7477 14.9048 64.9394 14.0203 65.3229 13.2349C65.7125 12.4494 66.2506 11.8433 66.9371 11.4165C67.6298 10.9897 68.4184 10.7764 69.3029 10.7764C70.6697 10.7764 71.7737 11.2495 72.6149 12.1958C73.4622 13.1421 73.8859 14.4007 73.8859 15.9717V16.0923C73.8859 17.0695 73.6972 17.9478 73.32 18.7271C72.9489 19.5002 72.4139 20.1032 71.715 20.5361C71.0223 20.9691 70.2244 21.1855 69.3214 21.1855C67.9607 21.1855 66.8567 20.7124 66.0094 19.7661C65.1683 18.8198 64.7477 17.5674 64.7477 16.0088V15.8882ZM66.4733 16.0923C66.4733 17.2056 66.7299 18.0993 67.2433 18.7734C67.7628 19.4476 68.4555 19.7847 69.3214 19.7847C70.1935 19.7847 70.8862 19.4445 71.3995 18.7642C71.9129 18.0776 72.1696 17.119 72.1696 15.8882C72.1696 14.7873 71.9067 13.8966 71.381 13.2163C70.8615 12.5298 70.1687 12.1865 69.3029 12.1865C68.4555 12.1865 67.7721 12.5236 67.2526 13.1978C66.733 13.8719 66.4733 14.8368 66.4733 16.0923Z" fill="black"/>
<g clip-path="url(#clip1)">
<path d="M3.15948 2.08691V8.31256L19.5455 17.4154L3.15948 26.9933H16.6605C20.9744 26.9933 24.4685 23.9284 24.4685 20.1471V14.5421L3.15948 2.08691Z" fill="url(#paint0_linear)"/>
<path d="M3.15948 2.08691L24.4685 14.542V8.93321C24.4685 5.15185 20.9706 2.08691 16.6605 2.08691H3.15948Z" fill="url(#paint1_linear)"/>
<path d="M14.3694 14.5422L3.15942 20.7679V26.9935L19.5453 17.4156L14.3694 14.5422Z" fill="url(#paint2_linear)"/>
</g>
</g>
<defs>
<linearGradient id="paint0_linear" x1="8.39778" y1="7.68815" x2="15.8095" y2="25.5881" gradientUnits="userSpaceOnUse">
<stop stop-color="#0057FF"/>
<stop offset="1" stop-color="#00A3FF"/>
</linearGradient>
<linearGradient id="paint1_linear" x1="11.8747" y1="7.81472" x2="25.6627" y2="4.17261" gradientUnits="userSpaceOnUse">
<stop stop-color="#0283FF"/>
<stop offset="1" stop-color="#01C2FF"/>
</linearGradient>
<linearGradient id="paint2_linear" x1="7.13594" y1="24.6867" x2="26.4463" y2="-0.936721" gradientUnits="userSpaceOnUse">
<stop stop-color="#0157FF"/>
<stop offset="1" stop-color="#00FFFF"/>
</linearGradient>
<clipPath id="clip0">
<rect width="82" height="30" fill="white"/>
</clipPath>
<clipPath id="clip1">
<rect width="21.5909" height="25" fill="white" transform="translate(3 2)"/>
</clipPath>
</defs>
</svg>
